<?xml version="1.0" standalone="no"?>
<!DOCTYPE svg PUBLIC "-//W3C//DTD SVG 20010904//EN"
 "http://www.w3.org/TR/2001/REC-SVG-20010904/DTD/svg10.dtd">
<svg version="1.0" xmlns="http://www.w3.org/2000/svg"
 width="700.000000pt" height="700.000000pt" viewBox="0 0 700.000000 700.000000"
 preserveAspectRatio="xMidYMid meet">
<metadata>
Created by potrace 1.14, written by Peter Selinger 2001-2017
</metadata>
<g transform="translate(0.000000,700.000000) scale(0.100000,-0.100000)"
fill="#000000" stroke="none">
<path d="M2487 5240 c-338 -58 -599 -290 -704 -627 l-28 -88 0 -1015 0 -1015
23 -85 c83 -315 317 -549 632 -632 l85 -23 1005 0 1005 0 85 23 c315 83 549
317 632 632 l23 85 0 1005 0 1005 -23 85 c-81 307 -298 530 -609 627 l-88 28
-995 1 c-547 1 -1017 -2 -1043 -6z"/>
</g>
</svg>
